<svg xmlns="http://www.w3.org/2000/svg" width="260" height="247" viewBox="0 0 260 247">
<g>
<path d="M 214.00 99.00 L 214.00 202.00 L 181.00 202.00 L 181.00 99.00 ZM 168.00 120.00 L 168.00 202.00 L 134.00 202.00 L 134.00 120.00 ZM 122.00 155.00 L 122.00 202.00 L 105.67 202.00 C96.68,202.00 89.03,201.70 88.67,201.33 C87.82,200.49 87.79,162.32 88.62,158.12 L 89.25 155.00 ZM 76.00 184.00 L 76.00 201.00 L 43.00 201.00 L 43.00 184.00 Z" fill="rgb(6,174,239)"/>
<path d="M 58.00 112.10 C50.03,119.28 42.83,125.51 42.00,125.94 C39.19,127.42 36.05,125.24 36.02,121.80 C36.00,120.31 67.74,90.54 70.60,89.35 C71.21,89.10 81.96,91.83 94.48,95.42 L 117.26 101.94 L 120.00 99.72 C121.51,98.50 132.36,89.65 144.12,80.06 C155.88,70.47 171.02,58.14 177.78,52.67 C184.53,47.20 190.27,42.37 190.53,41.95 C191.09,41.05 186.75,40.34 175.25,39.44 C170.71,39.08 167.00,38.65 167.00,38.47 C167.00,38.29 169.36,35.84 172.25,33.02 L 177.50 27.91 L 189.00 28.48 C195.32,28.80 202.71,29.32 205.40,29.64 L 210.30 30.23 L 209.66 45.86 L 209.02 61.50 L 203.26 66.69 L 197.50 71.87 L 197.22 60.44 C197.06,54.15 196.74,49.00 196.51,49.00 C196.11,49.00 173.19,67.59 135.36,98.61 L 119.22 111.85 L 97.36 105.45 C85.34,101.92 74.82,99.04 74.00,99.04 C73.18,99.04 65.97,104.91 58.00,112.10 Z" fill="rgb(29,51,65)"/>
<path d="M 0.00 123.50 L 0.00 0.00 L 130.00 0.00 L 260.00 0.00 L 260.00 123.50 L 260.00 247.00 L 130.00 247.00 L 0.00 247.00 L 0.00 123.50 ZM 122.00 178.50 L 122.00 155.00 L 105.62 155.00 L 89.25 155.00 L 88.62 158.12 C87.79,162.32 87.82,200.49 88.67,201.33 C89.03,201.70 96.68,202.00 105.67,202.00 L 122.00 202.00 L 122.00 178.50 ZM 168.00 161.00 L 168.00 120.00 L 151.00 120.00 L 134.00 120.00 L 134.00 161.00 L 134.00 202.00 L 151.00 202.00 L 168.00 202.00 L 168.00 161.00 ZM 214.00 150.50 L 214.00 99.00 L 197.50 99.00 L 181.00 99.00 L 181.00 150.50 L 181.00 202.00 L 197.50 202.00 L 214.00 202.00 L 214.00 150.50 ZM 76.00 192.50 L 76.00 184.00 L 59.50 184.00 L 43.00 184.00 L 43.00 192.50 L 43.00 201.00 L 59.50 201.00 L 76.00 201.00 L 76.00 192.50 ZM 58.00 112.10 C65.97,104.91 73.18,99.04 74.00,99.04 C74.82,99.04 85.34,101.92 97.36,105.45 L 119.22 111.85 L 135.36 98.61 C173.19,67.59 196.11,49.00 196.51,49.00 C196.74,49.00 197.06,54.15 197.22,60.44 L 197.50 71.87 L 203.26 66.69 L 209.02 61.50 L 209.66 45.86 L 210.30 30.23 L 205.40 29.64 C202.71,29.32 195.32,28.80 189.00,28.48 L 177.50 27.91 L 172.25 33.02 C169.36,35.84 167.00,38.29 167.00,38.47 C167.00,38.65 170.71,39.08 175.25,39.44 C186.75,40.34 191.09,41.05 190.53,41.95 C190.27,42.37 184.53,47.20 177.78,52.67 C171.02,58.14 155.88,70.47 144.12,80.06 C132.36,89.65 121.51,98.50 120.00,99.72 L 117.26 101.94 L 94.48 95.42 C81.96,91.83 71.21,89.10 70.60,89.35 C67.74,90.54 36.00,120.31 36.02,121.80 C36.05,125.24 39.19,127.42 42.00,125.94 C42.83,125.51 50.03,119.28 58.00,112.10 Z" fill="rgb(254,254,254)"/>
</g>
</svg>